<?xml version="1.0" encoding="iso-8859-1"?>
<!-- Generator: Adobe Illustrator 19.0.0, SVG Export Plug-In . SVG Version: 6.00 Build 0)  -->
<svg version="1.1" id="Capa_1" xmlns="http://www.w3.org/2000/svg" xmlns:xlink="http://www.w3.org/1999/xlink" x="0px" y="0px"
	 viewBox="0 0 480 480" style="enable-background:new 0 0 480 480;" xml:space="preserve">
<path style="fill:#33BC00;" d="M104,224h-8c-8.837,0-16,7.163-16,16v8c0.026,22.08,17.92,39.974,40,40h8c8.837,0,16-7.163,16-16v-8
	C143.974,241.92,126.08,224.026,104,224z"/>
<path style="fill:#79D60D;" d="M152,224h-8c-8.837,0-16,7.163-16,16v8c0.026,22.08,17.92,39.974,40,40h8c8.837,0,16-7.163,16-16v-8
	C191.974,241.92,174.08,224.026,152,224z"/>
<path style="fill:#025902;" d="M88,272h-8c-8.837,0-16,7.163-16,16v8c0.026,22.08,17.92,39.974,40,40h8c8.837,0,16-7.163,16-16v-8
	C127.974,289.92,110.08,272.026,88,272z"/>
<path style="fill:#008100;" d="M136,272h-8c-8.837,0-16,7.163-16,16v8c0.026,22.08,17.92,39.974,40,40h8c8.837,0,16-7.163,16-16v-8
	C175.974,289.92,158.08,272.026,136,272z"/>
<path style="fill:#33BC00;" d="M184,272h-8c-8.837,0-16,7.163-16,16v8c0.026,22.08,17.92,39.974,40,40h8c8.837,0,16-7.163,16-16v-8
	C223.974,289.92,206.08,272.026,184,272z"/>
<g>
	<path style="fill:#008100;" d="M296.407,213.475l8.003-23.997l15.178,5.062l-8.003,23.997L296.407,213.475z"/>
	<path style="fill:#008100;" d="M328.411,213.439l8.003-23.997l15.178,5.062l-8.003,23.997L328.411,213.439z"/>
	<path style="fill:#008100;" d="M360.423,213.466l8.003-23.997l15.178,5.062l-8.003,23.997L360.423,213.466z"/>
</g>
<path style="fill:#FF8800;" d="M304,208c-13.255,0-24,10.745-24,24v40h48v-40C328,218.745,317.255,208,304,208z"/>
<path style="fill:#FF6536;" d="M336,208c-13.255,0-24,10.745-24,24v40h48v-40C360,218.745,349.255,208,336,208z"/>
<path style="fill:#FF421D;" d="M368,208c-13.255,0-24,10.745-24,24v40h48v-40C392,218.745,381.255,208,368,208z"/>
<path style="fill:#FFA900;" d="M264,264h144v64H264V264z"/>
<g>
	<path style="fill:#DE0418;" d="M216,8h48v112h-48V8z"/>
	<path style="fill:#DE0418;" d="M168,120V8h-35.552L120,120H168z"/>
</g>
<g>
	<path style="fill:#FBBF00;" d="M168,8h48v112h-48V8z"/>
	<path style="fill:#FBBF00;" d="M120,120L132.448,8h-35.56L72,120H120z"/>
	<path style="fill:#FBBF00;" d="M408,120L383.112,8h-35.56L360,120H408z"/>
</g>
<g>
	<path style="fill:#DE0418;" d="M96.888,8H72l-48,96v16h48L96.888,8z"/>
	<path style="fill:#DE0418;" d="M360,120L347.552,8H312v112H360z"/>
</g>
<path style="fill:#FBBF00;" d="M264,8h48v112h-48V8z"/>
<path style="fill:#DE0418;" d="M408,8h-24.888L408,120h48v-16L408,8z"/>
<path style="fill:#FF421D;" d="M24,120v24c0,13.255,10.745,24,24,24s24-10.745,24-24v-24H24z"/>
<path style="fill:#FFDB0C;" d="M72,120v24c0,13.255,10.745,24,24,24s24-10.745,24-24v-24H72z"/>
<path style="fill:#FF421D;" d="M120,120v24c0,13.255,10.745,24,24,24s24-10.745,24-24v-24H120z"/>
<path style="fill:#FFDB0C;" d="M168,120v24c0,13.255,10.745,24,24,24s24-10.745,24-24v-24H168z"/>
<path style="fill:#FF421D;" d="M216,120v24c0,13.255,10.745,24,24,24c13.255,0,24-10.745,24-24v-24H216z"/>
<path style="fill:#FFDB0C;" d="M264,120v24c0,13.255,10.745,24,24,24s24-10.745,24-24v-24H264z"/>
<path style="fill:#FF421D;" d="M312,120v24c0,13.255,10.745,24,24,24s24-10.745,24-24v-24H312z"/>
<path style="fill:#FFDB0C;" d="M360,120v24c0,13.255,10.745,24,24,24s24-10.745,24-24v-24H360z"/>
<path style="fill:#FF421D;" d="M408,144c0,13.255,10.745,24,24,24s24-10.745,24-24v-24h-48V144z"/>
<path style="fill:#FFDB0C;" d="M16,320h448v160H16V320z"/>
<g>
	<path style="fill:#33BC00;" d="M298.343,370.363l24.002-24.002l11.314,11.314l-24.002,24.002L298.343,370.363z"/>
	<path style="fill:#33BC00;" d="M312,376h24v16h-24V376z"/>
</g>
<path style="fill:#FF6536;" d="M287.28,360h-2.56c-10.566,0.012-20.48,5.113-26.632,13.704l-30.344,42.488
	c-6.455,9.045-4.356,21.61,4.689,28.065c3.411,2.434,7.497,3.743,11.687,3.743h1.024c3.121-0.005,6.198-0.731,8.992-2.12
	l47.784-23.896c16.162-8.083,22.711-27.738,14.628-43.9C311.004,366.999,299.673,359.999,287.28,360L287.28,360z"/>
<path style="fill:#79D60D;" d="M200,368h-8c-8.837,0-16,7.163-16,16v8c0.035,30.913,25.087,55.965,56,56h8c8.837,0,16-7.163,16-16
	v-8C255.965,393.087,230.913,368.035,200,368z"/>
<path d="M412.944,0H67.056L16,102.112V144c0.036,11.381,6.133,21.88,16,27.552V320H16v160h448V320h-16V171.552
	c9.867-5.672,15.964-16.171,16-27.552v-41.888L412.944,0z M400,144c0,8.837-7.163,16-16,16s-16-7.163-16-16v-16h32V144z M352,144
	c0,8.837-7.163,16-16,16s-16-7.163-16-16v-16h32V144z M304,144c0,8.837-7.163,16-16,16s-16-7.163-16-16v-16h32V144z M256,144
	c0,8.837-7.163,16-16,16c-8.837,0-16-7.163-16-16v-16h32V144z M208,144c0,8.837-7.163,16-16,16s-16-7.163-16-16v-16h32V144z
	 M160,144c0,8.837-7.163,16-16,16s-16-7.163-16-16v-16h32V144z M112,144c0,8.837-7.163,16-16,16s-16-7.163-16-16v-16h32V144z
	 M224,112V16h32v96H224z M208,112h-32V16h32V112z M160,112h-30.776l13.712-96H160V112z M113.064,112H82.608l27.424-96h16.744
	L113.064,112z M368,112h-1.064l-13.712-96h16.744l27.432,96H368z M337.064,16l13.712,96H320V16H337.064z M304,112h-32V16h32V112z
	 M32,105.888L76.944,16h16.448l-27.424,96H32L32,105.888z M64,128v16c0,8.837-7.163,16-16,16s-16-7.163-16-16v-16H64z M448,464H32
	V336h416V464z M80,296v-8h8c13.255,0,24,10.745,24,24v8h-8C90.745,320,80,309.255,80,296z M208,320h-8c-13.255,0-24-10.745-24-24v-8
	h8c13.255,0,24,10.745,24,24V320z M128,296v-8h8c13.255,0,24,10.745,24,24v8h-8C138.745,320,128,309.255,128,296z M176,272h-8
	c-13.255,0-24-10.745-24-24v-8h8c13.255,0,24,10.745,24,24V272z M128,272h-8c-13.255,0-24-10.745-24-24v-8h8
	c13.255,0,24,10.745,24,24V272z M304,224c4.418,0,8,3.582,8,8v24h-16v-24C296,227.582,299.582,224,304,224z M328,232
	c0-4.418,3.582-8,8-8s8,3.582,8,8v24h-16V232z M360,232c0-4.418,3.582-8,8-8s8,3.582,8,8v24h-16V232z M312,272h88v48H272v-48H312z
	 M432,320h-16v-64h-24v-24c-0.031-9.237-5.36-17.637-13.704-21.6l5.296-15.88l-15.2-5.064l-6.464,19.4
	c-3.693,0.974-7.097,2.821-9.928,5.384c-1.708-1.544-3.629-2.835-5.704-3.832l5.296-15.88l-15.2-5.064l-6.464,19.4
	c-3.692,0.972-7.096,2.815-9.928,5.376c-1.708-1.544-3.629-2.835-5.704-3.832l5.296-15.88l-15.2-5.064l-6.464,19.4
	C287.397,211.618,280.038,221.115,280,232v24h-24v64h-32v-8c-0.029-19.026-13.435-35.408-32.08-39.2c0-0.272,0.08-0.528,0.08-0.8v-8
	c-0.026-22.08-17.92-39.974-40-40h-8c-6.273,0.014-11.96,3.692-14.544,9.408c-7.113-6.035-16.128-9.367-25.456-9.408h-8
	c-8.837,0-16,7.163-16,16v8c0.036,8.685,2.925,17.118,8.224,24H88h-8c-8.837,0-16,7.163-16,16v8c0.031,8.683,2.915,17.116,8.208,24
	H48V176c9.225-0.03,17.982-4.064,24-11.056c11.326,13.255,31.252,14.819,44.507,3.493c1.254-1.071,2.422-2.239,3.493-3.493
	c11.326,13.255,31.252,14.819,44.507,3.493c1.254-1.071,2.422-2.239,3.493-3.493c11.326,13.255,31.252,14.819,44.507,3.493
	c1.254-1.071,2.422-2.239,3.493-3.493c11.326,13.255,31.252,14.819,44.507,3.493c1.254-1.071,2.422-2.239,3.493-3.493
	c11.326,13.255,31.252,14.819,44.507,3.493c1.254-1.071,2.422-2.239,3.493-3.493c11.326,13.255,31.252,14.819,44.507,3.493
	c1.254-1.071,2.422-2.239,3.493-3.493c11.326,13.255,31.252,14.819,44.507,3.493c1.254-1.071,2.422-2.239,3.493-3.493
	c6.018,6.992,14.775,11.026,24,11.056L432,320z M448,144c0,8.837-7.163,16-16,16s-16-7.163-16-16v-16h32V144z M416,112h-1.968
	l-27.424-96h16.448L448,105.888V112H416z"/>
<path d="M288,288h96v16h-96V288z"/>
<path d="M333.656,357.656l-11.312-11.312l-18.4,18.4c-5.02-3.066-10.781-4.706-16.664-4.744h-2.56
	c-10.566,0.012-20.48,5.113-26.632,13.704L245.4,391.472C234.982,376.733,218.049,367.978,200,368h-8c-8.837,0-16,7.163-16,16v8
	c0.035,30.913,25.087,55.965,56,56h8c0.707,0.001,1.413-0.074,2.104-0.224c0.665,0.108,1.335,0.183,2.008,0.224h1.024
	c3.124-0.003,6.205-0.731,9-2.128l47.776-23.888c11.114-5.51,18.129-16.859,18.088-29.264c0-0.248-0.064-0.48-0.072-0.72H336v-16
	h-20.688L333.656,357.656z M192,392v-8h8c16.416-0.047,31.175,9.994,37.16,25.28c1.872,4.682,2.836,9.678,2.84,14.72l-0.048,7.848
	L232,432C209.92,431.974,192.026,414.08,192,392z M294.76,407.672L256,427.056V424c-0.018-2.474-0.203-4.943-0.552-7.392
	c-0.072-0.536-0.144-1.064-0.232-1.6c-0.378-2.398-0.913-4.768-1.6-7.096c0-0.096,0-0.2-0.064-0.296l17.6-24.624
	c3.142-4.369,8.186-6.969,13.568-6.992h2.552c9.234,0.002,16.719,7.489,16.717,16.723c-0.001,6.33-3.577,12.116-9.237,14.949H294.76
	z"/>
<g>
</g>
<g>
</g>
<g>
</g>
<g>
</g>
<g>
</g>
<g>
</g>
<g>
</g>
<g>
</g>
<g>
</g>
<g>
</g>
<g>
</g>
<g>
</g>
<g>
</g>
<g>
</g>
<g>
</g>
</svg>
