<?xml version="1.0" encoding="utf-8"?>
<!-- Generator: Adobe Illustrator 23.0.5, SVG Export Plug-In . SVG Version: 6.00 Build 0)  -->
<svg version="1.1" id="Logo" xmlns="http://www.w3.org/2000/svg" xmlns:xlink="http://www.w3.org/1999/xlink" x="0px" y="0px"
	 viewBox="0 0 820.7 820.7" style="enable-background:new 0 0 820.7 820.7;" xml:space="preserve">
<style type="text/css">
	.st0{fill:#FFE000;}
	.st1{fill:#5B280B;}
	.st2{fill:#55C2FF;}
	.st3{fill:#00770E;}
	.st4{fill:#599A12;}
</style>
<g id="Circular_Border_Outline">
	<path class="st0" d="M820.7,410.2c0.1,225.9-183.3,409.6-409.6,410.4C185.1,821.4-0.7,635.7,0,409.7C0.7,183.9,185.5-0.4,410.7,0
		C636.6,0.4,820.6,184.5,820.7,410.2z M752.6,410.2C752.3,222.1,599.4,68.8,411.1,68.1c-188.2-0.7-343.4,154.4-343,342.6
		C68.4,598.9,221.6,752,409.8,752.6C598.5,753.1,752.8,599,752.6,410.2z"/>
</g>
<g id="Circular_Border">
	<path class="st1" d="M810.3,410.2c0.1,220.2-178.7,399.3-399.3,400.1C190.7,811,9.6,630,10.3,409.7C11,189.6,191.1,9.9,410.7,10.3
		C630.9,10.7,810.2,190.2,810.3,410.2z M743.9,410.2C743.7,226.8,594.6,77.4,411,76.7C227.6,76,76.3,227.2,76.7,410.7
		C77,594.1,226.3,743.4,409.8,743.9C593.7,744.4,744.1,594.2,743.9,410.2z"/>
</g>
<g id="Right_Leaf">
	<path class="st2" d="M416.3,532.9l-3.3-2.5c-1.8-12.1,6.8-36.9,16.8-63.9c3.3-9.1,6.5-17.7,9-25l0.1-0.2l0.1-0.2
		c21.9-51.5,45.7-98.2,72.6-142.1c-10.8,9.6-21.8,19.5-27,23.9c-8,9.2-15.2,17.3-21.5,24.5c-35.6,40-50.3,56.6-82.2,128.3l0,0
		l-4.6-2c1.2-35.4,120.6-207,170.1-226.9C582.6,232.3,416.3,532.9,416.3,532.9z"/>
	<path class="st3" d="M328,436.1c1.1-33.8,15.4-66.1,28.2-84.2c16.4-23.2,49.6-54.9,83.9-76.4c30.1-18.8,53-34.3,107-59.3
		c16.7-7.8,45.7-19.8,50.1-22.1c7.2-3.9,12-2.3,13.2,5.5c10.1,87.9,15,176.2-21.8,259.4c-6.4,15.4-15.3,30.3-25.9,43.2
		c-32.9,42.5-69.8,59.2-122.6,46.9c-8.3-1.2-23.8-16.2-23.8-16.2c-2.2-14.7,17.7-61.4,27.2-89.8c24.1-56.7,51.1-109,83.8-159.9
		c3.3-4.9,6.5-8.7,9.8-13.7c-5,4.1-45.1,40.5-56.1,49.9c-52,60-66.6,68.6-104.8,154.3L328,436.1z"/>
</g>
<g id="Left_Leaf">
	<path class="st2" d="M196.1,451.8c23.3-21.7,215,127.6,212.2,127.6c-1.1,0-2.4,4.8-3.3,4.2c-7.1-4.9-14.2-9.9-21.1-14.8
		c-15.3-10.9-31.1-22.2-47.6-31.6C309.5,522,283,508.5,255,494.1c-6-3.1-12.2-6.2-18.4-9.4c43.3,39.8,83.3,82.7,121.9,130.6l0.1,0.1
		l0.1,0.1c3.3,4.6,4.7,15.5-0.9,18.4C339.9,642.8,192.3,455.3,196.1,451.8z"/>
	<path class="st4" d="M370.5,486.4c19.8,27.3,37.2,57.2,37.7,93c0,0.2-0.2,0.3-0.3,0.2c-23-15.7-45-33-69.2-46.7
		c-38.7-22-77.7-40.9-118.4-62.1c-4.4-2.3-8.8-4.5-13.1-6.7c-0.6-0.6,6.1,6.3,9.2,9.3c50.2,44.4,95.8,92.6,138.1,145.1
		c7.9,11.1,5.9,16-5.9,22c-52.1,26-103.1,12.6-142.3-39.5c-39.6-52.6-60.7-113.4-77.2-176.3c-3.1-11.9,2.9-11.9,11.6-12.1
		c65.4-1.5,128.4,9,187.6,38l9.9,7.4l14.9,11.9l11,9.5L370.5,486.4z"/>
</g>
</svg>
