<?xml version="1.0" encoding="utf-8"?>
<!-- Generator: Adobe Illustrator 25.2.1, SVG Export Plug-In . SVG Version: 6.00 Build 0)  -->
<svg version="1.1" id="Layer_1" xmlns="http://www.w3.org/2000/svg" xmlns:xlink="http://www.w3.org/1999/xlink" x="0px" y="0px"
	 viewBox="0 0 960 540" style="enable-background:new 0 0 960 540;" xml:space="preserve">
<style type="text/css">
	.st0{fill:#FFFFFF;stroke:#000000;stroke-miterlimit:10;}
	.st1{fill:#008037;}
	.st2{fill:#5B280B;}
	.st3{fill:#5B3503;}
	.st4{fill:#5DADEC;}
	.st5{fill:#FFE000;}
	.st6{fill:#55C2FF;}
	.st7{fill:#00770E;}
	.st8{fill:#599A12;}
	.st9{display:none;}
	.st10{display:inline;fill:#9DD520;}
	.st11{display:inline;fill:#5B3503;}
</style>
<rect class="st0" width="960" height="540"/>
<g id="reinventing_agriculture">
	<g id="e_2_">
		<g>
			<path class="st1" d="M866.5,368L866.5,368c-1.1,1-2.6,1.9-4.5,2.7c-1.9,0.8-3.8,1.2-5.8,1.2c-2.7,0-5.1-0.6-7.1-1.8
				c-2-1.2-3.7-2.7-4.8-4.7s-1.8-4.3-1.8-6.9c0-2.9,0.6-5.4,1.9-7.4c1.2-2,2.9-3.6,4.8-4.7c1.9-1.1,4.2-1.7,6.6-1.7
				c2.1,0,4.2,0.6,5.9,1.6c1.8,1,3.2,2.6,4.3,4.5c1,1.9,1.6,4.1,1.6,6.6v2.2h-20c0.3,2.3,1.3,4.2,2.9,5.6c1.7,1.4,3.7,2,6.2,2
				c1.9,0,3.2-0.4,4.5-1c1.2-0.6,2-1.3,2.8-1.9L866.5,368z M855.8,349.6c-1.9,0-3.6,0.5-5.1,1.4s-2.4,2.5-2.9,4.6h14.6v-0.4
				c-0.1-1.1-0.5-2.1-1.1-3c-0.6-0.8-1.5-1.5-2.4-2C857.8,349.7,856.8,349.6,855.8,349.6z"/>
		</g>
	</g>
	<g id="r_3_">
		<g>
			<path class="st1" d="M838.6,350.9c-0.4-0.2-0.7-0.3-1.2-0.5c-0.5-0.1-1-0.2-1.5-0.2c-1,0-2.1,0.3-3.2,0.8c-1,0.6-1.9,1.3-2.6,2.3
				c-0.6,1-1,2.2-1,3.6v14.4H824v-26.1h5.2v4.9c0.7-1.6,1.9-2.9,3.3-3.9c1.5-1,3.1-1.6,4.6-1.6c1.2,0,2.1,0.2,2.8,0.5L838.6,350.9z"
				/>
		</g>
	</g>
	<g id="u_1_">
		<g>
			<path class="st1" d="M811.8,361.1v-15.7h5.1v26.1h-5.1v-4.2c-0.7,1.2-1.9,2.3-3.3,3.2c-1.5,0.9-3.2,1.4-5.3,1.4
				c-2.7,0-4.9-0.9-6.6-2.8c-1.7-1.9-2.5-4.5-2.5-7.7v-16.1h5.1V360c0,1.3,0.2,2.6,0.6,3.7c0.5,1.1,1.1,2,1.9,2.7c0.9,0.6,2,1,3.5,1
				c1.8,0,3.3-0.6,4.6-1.7C811.2,364.7,811.8,363.1,811.8,361.1z"/>
		</g>
	</g>
	<g id="t_1_">
		<g>
			<path class="st1" d="M783.3,371.5h-5.1v-21.1h-5.4v-5h5.4v-6.7h5.1v6.7h6v5h-6V371.5z"/>
		</g>
	</g>
	<g id="l">
		<g>
			<path class="st1" d="M762.6,371.5v-36.8h5.1v36.8H762.6z"/>
		</g>
	</g>
	<g id="u">
		<g>
			<path class="st1" d="M750.3,361.1v-15.7h5.1v26.1h-5.1v-4.2c-0.7,1.2-1.9,2.3-3.3,3.2c-1.5,0.9-3.2,1.4-5.3,1.4
				c-2.7,0-4.9-0.9-6.6-2.8c-1.7-1.9-2.5-4.5-2.5-7.7v-16.1h5.1V360c0,1.3,0.2,2.6,0.6,3.7c0.5,1.1,1.1,2,1.9,2.7c0.9,0.6,2,1,3.5,1
				c1.8,0,3.3-0.6,4.6-1.7C749.6,364.7,750.3,363.1,750.3,361.1z"/>
		</g>
	</g>
	<g id="c_1_">
		<g>
			<path class="st1" d="M709.3,358.5c0,1.8,0.4,3.2,1.2,4.6c0.7,1.3,1.8,2.4,3.1,3.2s2.6,1.2,4.1,1.2c1.7,0,3.1-0.5,4.4-1.3
				c1.2-0.8,2.2-1.8,3-2.7l2.8,3.4c-0.6,0.9-1.5,1.8-2.6,2.5s-2.3,1.4-3.7,1.9s-2.9,0.7-4.4,0.7c-2.4,0-4.5-0.6-6.5-1.8
				c-1.9-1.2-3.4-2.8-4.5-4.8s-1.7-4.4-1.7-6.9c0-2.6,0.6-4.9,1.7-7s2.6-3.6,4.5-4.8c1.9-1.2,4.1-1.8,6.5-1.8s4.5,0.5,6.5,1.5
				c1.9,1,3.2,2.2,4.2,3.8l-2.8,3.4c-0.7-1.1-1.9-2.1-3.2-2.9c-1.4-0.8-2.8-1.2-4.1-1.2c-1.6,0-3,0.4-4.2,1.2
				c-1.2,0.8-2.2,1.9-3,3.2C709.6,355.1,709.3,356.7,709.3,358.5z"/>
		</g>
	</g>
	<g id="i_3_">
		<g>
			<path class="st1" d="M695.6,339.7c-1.2,0-2-0.3-2.6-0.9s-0.8-1.4-0.8-2.3c0-0.8,0.3-1.6,0.8-2.2c0.6-0.6,1.4-1,2.6-1
				c1.2,0,2,0.3,2.6,0.9s0.8,1.4,0.8,2.3c0,0.8-0.3,1.6-0.8,2.2C697.7,339.4,696.7,339.7,695.6,339.7z M698.2,371.5h-5.1v-26.1h5.1
				V371.5z"/>
		</g>
	</g>
	<g id="r_2_">
		<g>
			<path class="st1" d="M686.8,350.9c-0.4-0.2-0.7-0.3-1.2-0.5c-0.5-0.1-1-0.2-1.5-0.2c-1,0-2.1,0.3-3.2,0.8c-1,0.6-1.9,1.3-2.6,2.3
				c-0.6,1-1,2.2-1,3.6v14.4h-5.2v-26.1h5.2v4.9c0.7-1.6,1.9-2.9,3.3-3.9c1.5-1,3.1-1.6,4.6-1.6c1.2,0,2.1,0.2,2.8,0.5L686.8,350.9z
				"/>
		</g>
	</g>
	<g id="g_2_">
		<g>
			<path class="st1" d="M643.6,375.8c1,0.7,2.2,1.4,3.7,1.9s3,0.7,4.4,0.7c2.7,0,4.7-0.6,6.1-1.9s2.1-3.2,2.1-5.8v-3.3
				c-0.5,0.8-1.1,1.6-1.9,2.2c-0.8,0.7-1.9,1.3-3.1,1.8c-1.2,0.5-2.3,0.6-3.6,0.6c-2.4,0-4.6-0.6-6.6-1.8c-1.9-1.2-3.5-2.8-4.6-4.8
				s-1.7-4.4-1.7-7c0-2.7,0.6-5,1.7-7.1c1.1-2,2.7-3.6,4.6-4.8c1.9-1.2,4.1-1.8,6.5-1.8c1.9,0,3.7,0.5,5.3,1.3
				c1.6,0.9,2.7,1.9,3.5,2.9v-3.6h5.1v24.5c0,3.2-0.6,5.6-1.9,7.5c-1.2,1.9-2.9,3.2-4.9,4.2c-2,0.9-4.3,1.3-6.6,1.3
				c-1.9,0-3.7-0.3-5.6-0.8c-1.9-0.6-3.3-1.3-4.5-2.2L643.6,375.8z M651.8,349.6c-1.6,0-3,0.4-4.3,1.2c-1.2,0.7-2.2,1.9-3,3.2
				c-0.7,1.3-1.1,2.9-1.1,4.5s0.4,3.2,1.1,4.5c0.7,1.4,1.7,2.4,3,3.2c1.2,0.7,2.7,1.2,4.3,1.2c1.7,0,3.1-0.4,4.4-1.1
				c1.2-0.7,2.2-1.9,2.9-3.2c0.6-1.3,1-2.9,1-4.5c0-1.8-0.4-3.2-1-4.5s-1.7-2.4-2.9-3.2S653.5,349.6,651.8,349.6z"/>
		</g>
	</g>
	<g id="a">
		<g>
			<path class="st1" d="M632.8,345.4v26.1h-5.2v-4c-0.8,1.1-1.9,2.1-3.5,3.1c-1.6,0.9-3.3,1.4-5.4,1.4c-2.1,0-4.2-0.6-5.9-1.8
				c-1.8-1.2-3.2-2.8-4.3-4.8c-1-2-1.6-4.4-1.6-7.1s0.6-5,1.7-7.1c1.1-2,2.6-3.6,4.5-4.7s4.1-1.8,6.6-1.8c1.9,0,3.4,0.4,4.8,1.2
				c1.4,0.8,2.5,1.8,3.3,2.8v-3.4L632.8,345.4L632.8,345.4z M619.9,367.3c1.6,0,3-0.4,4.2-1.2c1.2-0.7,2.1-1.9,2.8-3.2
				c0.6-1.3,1-2.9,1-4.5s-0.4-3.2-1-4.5s-1.6-2.4-2.8-3.2c-1.2-0.7-2.6-1.2-4.2-1.2c-1.5,0-2.9,0.4-4.1,1.1
				c-1.2,0.7-2.1,1.8-2.8,3.2c-0.6,1.3-1,2.8-1,4.5c0,1.8,0.4,3.2,1,4.5s1.6,2.4,2.8,3.2C617,366.8,618.4,367.3,619.9,367.3z"/>
		</g>
	</g>
	<g id="g_1_">
		<g>
			<path class="st2" d="M566.1,375.8c1,0.7,2.2,1.4,3.7,1.9s3,0.7,4.4,0.7c2.7,0,4.7-0.6,6.1-1.9c1.4-1.3,2.1-3.2,2.1-5.8v-3.3
				c-0.5,0.8-1.1,1.6-1.9,2.2c-0.8,0.7-1.9,1.3-3.1,1.8c-1.2,0.5-2.3,0.6-3.6,0.6c-2.4,0-4.6-0.6-6.6-1.8c-1.9-1.2-3.5-2.8-4.6-4.8
				s-1.7-4.4-1.7-7c0-2.7,0.6-5,1.7-7.1s2.7-3.6,4.6-4.8c1.9-1.2,4.1-1.8,6.5-1.8c1.9,0,3.7,0.5,5.3,1.3c1.6,0.9,2.7,1.9,3.5,2.9
				v-3.6h5.1v24.5c0,3.2-0.6,5.6-1.9,7.5c-1.2,1.9-2.9,3.2-4.9,4.2c-2,0.9-4.3,1.3-6.6,1.3c-1.9,0-3.7-0.3-5.6-0.8
				c-1.9-0.6-3.3-1.3-4.5-2.2L566.1,375.8z M574.3,349.6c-1.6,0-3,0.4-4.3,1.2c-1.2,0.7-2.2,1.9-3,3.2c-0.7,1.3-1.1,2.9-1.1,4.5
				s0.4,3.2,1.1,4.5c0.7,1.4,1.7,2.4,3,3.2c1.2,0.7,2.7,1.2,4.3,1.2c1.7,0,3.1-0.4,4.4-1.1c1.2-0.7,2.2-1.9,2.9-3.2s1-2.9,1-4.5
				c0-1.8-0.4-3.2-1-4.5s-1.7-2.4-2.9-3.2S576,349.6,574.3,349.6z"/>
		</g>
	</g>
	<g id="n_2_">
		<g>
			<path class="st2" d="M546.6,344.8c2.3,0,4.2,0.5,5.5,1.4s2.2,2.2,2.7,3.9c0.5,1.7,0.7,3.4,0.7,5.4v15.9h-5.1v-15.5
				c0-1.3-0.2-2.4-0.5-3.3s-0.9-1.8-1.7-2.3c-0.8-0.6-1.9-0.8-3.3-0.7c-1.3,0-2.5,0.3-3.5,0.8c-1,0.6-1.9,1.3-2.4,2.2
				s-0.9,1.9-0.9,3.1v15.8H533v-26.1h5.1v4.1c0.8-1.2,1.9-2.3,3.4-3.2C543.1,345.4,544.7,344.8,546.6,344.8z"/>
		</g>
	</g>
	<g id="i_2_">
		<g>
			<path class="st2" d="M522.5,339.7c-1.2,0-2-0.3-2.6-0.9s-0.8-1.4-0.8-2.3c0-0.8,0.3-1.6,0.8-2.2c0.6-0.6,1.4-1,2.6-1
				c1.2,0,2,0.3,2.6,0.9s0.8,1.4,0.8,2.3c0,0.8-0.3,1.6-0.8,2.2C524.6,339.4,523.8,339.7,522.5,339.7z M525.2,371.5h-5.1v-26.1h5.1
				V371.5z"/>
		</g>
	</g>
	<g id="t">
		<g>
			<path class="st2" d="M508.4,371.5h-5.1v-21.1H498v-5h5.4v-6.7h5.1v6.7h6v5h-6v21.1H508.4z"/>
		</g>
	</g>
	<g id="n_1_">
		<g>
			<path class="st2" d="M484.2,344.8c2.3,0,4.2,0.5,5.5,1.4s2.2,2.2,2.7,3.9c0.5,1.7,0.7,3.4,0.7,5.4v15.9H488v-15.5
				c0-1.3-0.2-2.4-0.5-3.3c-0.4-1-0.9-1.8-1.7-2.3c-0.8-0.6-1.9-0.8-3.3-0.7c-1.3,0-2.5,0.3-3.5,0.8c-1,0.6-1.9,1.3-2.4,2.2
				s-0.9,1.9-0.9,3.1v15.8h-5.1v-26.1h5.1v4.1c0.8-1.2,1.9-2.3,3.4-3.2C480.7,345.4,482.4,344.8,484.2,344.8z"/>
		</g>
	</g>
	<g id="e_1_">
		<g>
			<path class="st2" d="M463.9,368L463.9,368c-1.1,1-2.6,1.9-4.5,2.7c-1.9,0.8-3.8,1.2-5.8,1.2c-2.7,0-5.1-0.6-7.1-1.8
				c-2-1.2-3.7-2.7-4.8-4.7c-1.2-2-1.8-4.3-1.8-6.9c0-2.9,0.6-5.4,1.9-7.4c1.2-2,2.9-3.6,4.8-4.7c2-1.1,4.2-1.7,6.6-1.7
				c2.2,0,4.2,0.6,5.9,1.6c1.8,1,3.2,2.6,4.3,4.5c1,1.9,1.6,4.1,1.6,6.6v2.2h-20c0.3,2.3,1.3,4.2,2.9,5.6c1.7,1.4,3.7,2,6.2,2
				c1.9,0,3.2-0.4,4.5-1c1.1-0.6,2-1.3,2.8-1.9L463.9,368z M453.2,349.6c-1.9,0-3.6,0.5-5.1,1.4s-2.4,2.5-2.9,4.6h14.6v-0.4
				c-0.1-1.1-0.5-2.1-1.1-3c-0.6-0.8-1.5-1.5-2.4-2C455.4,349.7,454.3,349.6,453.2,349.6z"/>
		</g>
	</g>
	<g id="v">
		<g>
			<path class="st2" d="M416.1,345.4l7.6,18.6l7.9-18.6h5.3l-11.6,26.1h-3.7l-11-26.1H416.1z"/>
		</g>
	</g>
	<g id="n">
		<g>
			<path class="st2" d="M397.2,344.8c2.3,0,4.2,0.5,5.5,1.4s2.2,2.2,2.7,3.9c0.5,1.7,0.7,3.4,0.7,5.4v15.9H401v-15.5
				c0-1.3-0.2-2.4-0.5-3.3c-0.4-1-0.9-1.8-1.7-2.3c-0.8-0.6-1.9-0.8-3.3-0.7c-1.3,0-2.5,0.3-3.5,0.8c-1,0.6-1.9,1.3-2.4,2.2
				s-0.9,1.9-0.9,3.1v15.8h-5.1v-26.1h5.1v4.1c0.8-1.2,1.9-2.3,3.4-3.2C393.6,345.4,395.3,344.8,397.2,344.8z"/>
		</g>
	</g>
	<g id="i_1_">
		<g>
			<path class="st2" d="M373.1,339.7c-1.2,0-2-0.3-2.6-0.9s-0.8-1.4-0.8-2.3c0-0.8,0.3-1.6,0.8-2.2c0.6-0.6,1.4-1,2.6-1
				s2,0.3,2.6,0.9s0.8,1.4,0.8,2.3c0,0.8-0.3,1.6-0.8,2.2C375.2,339.4,374.3,339.7,373.1,339.7z M375.8,371.5h-5.1v-26.1h5.1V371.5z
				"/>
		</g>
	</g>
	<g id="e">
		<g>
			<path class="st2" d="M363,368L363,368c-1.1,1-2.6,1.9-4.5,2.7c-1.9,0.8-3.8,1.2-5.8,1.2c-2.7,0-5.1-0.6-7.1-1.8
				c-2-1.2-3.7-2.7-4.8-4.7c-1.2-2-1.8-4.3-1.8-6.9c0-2.9,0.6-5.4,1.9-7.4c1.2-2,2.9-3.6,4.8-4.7c2-1.1,4.2-1.7,6.6-1.7
				c2.2,0,4.2,0.6,5.9,1.6c1.8,1,3.2,2.6,4.3,4.5c1,1.9,1.6,4.1,1.6,6.6v2.2h-20c0.3,2.3,1.3,4.2,2.9,5.6c1.7,1.4,3.7,2,6.2,2
				c1.9,0,3.2-0.4,4.5-1c1.1-0.6,2-1.3,2.8-1.9L363,368z M352.3,349.6c-1.9,0-3.6,0.5-5.1,1.4s-2.4,2.5-2.9,4.6h14.6v-0.4
				c-0.1-1.1-0.5-2.1-1.1-3c-0.6-0.8-1.5-1.5-2.4-2S353.5,349.6,352.3,349.6z"/>
		</g>
	</g>
	<g id="r_1_">
		<g>
			<path class="st2" d="M335.3,350.9c-0.4-0.2-0.7-0.3-1.2-0.5c-0.5-0.1-1-0.2-1.5-0.2c-1,0-2.1,0.3-3.2,0.8c-1,0.6-1.9,1.3-2.6,2.3
				c-0.6,1-1,2.2-1,3.6v14.4h-5.2v-26.1h5.2v4.9c0.7-1.6,1.9-2.9,3.3-3.9c1.5-1,3.1-1.6,4.6-1.6c1.2,0,2.1,0.2,2.8,0.5L335.3,350.9z
				"/>
		</g>
	</g>
</g>
<g id="Tick">
	<g id="k">
		<polygon class="st3" points="806.3,325.6 768.8,325.6 768.8,185 806.3,185 806.3,257 823.2,225.3 862.1,225.3 843.7,260.3 
			869.2,325.6 828.7,325.6 806.3,263.3 		"/>
	</g>
	<g id="c">
		<path class="st3" d="M718.8,275.5h38.7v0.4c0,15-5.1,27.5-15.4,37.5c-10.3,10-22.8,15-37.7,15c-5.3,0-10.3-0.8-15.3-2.3
			c-4.9-1.5-9.5-3.7-13.9-6.6c-7.5-5.1-13.3-11.5-17.5-19.2s-6.2-16-6.2-24.9c0-7,1.3-13.7,4-20.2c2.7-6.4,6.5-12.1,11.6-17.1
			c5.1-5.1,10.8-9.1,17.2-11.8s13.1-4,20-4c13,0,24.4,4,34.1,12c9.7,8,15.7,18.4,17.9,31.1h-38.6c-1.9-2-3.9-3.6-5.9-4.6
			s-4.3-1.5-6.7-1.5c-4.3,0-7.9,1.4-10.8,4.1c-2.9,2.8-4.4,6.2-4.4,10.2c0,3.9,1.4,7.3,4.3,10.2c2.9,2.9,6.2,4.3,10.2,4.3
			c3.8,0,7-1.1,9.3-3.2C716.2,283,717.9,279.8,718.8,275.5z"/>
	</g>
	<g id="i">
		<rect x="602.5" y="225.3" class="st3" width="37.5" height="100.3"/>
		<path class="st4" d="M621,160.4c0,0-37.6,59.6,0.3,59.3C659.2,219.5,621,160.4,621,160.4z"/>
	</g>
	<g id="T">
		<polygon class="st3" points="487.3,226 487.3,185 589.7,185 589.7,226 559.6,226 559.6,325.6 517.5,325.6 517.5,226 		"/>
	</g>
</g>
<g id="o_1_">
	<g id="Circular_Border_Outline">
		<path class="st5" d="M485.1,272.6c0,29.1-23.6,52.8-52.8,52.9c-29.2,0.1-53.1-23.8-53-53c0.1-29.1,23.9-52.9,53-52.8
			C461.4,219.8,485.1,243.5,485.1,272.6z M476.3,272.6c0-24.3-19.8-44-44-44.1c-24.3-0.1-44.3,19.9-44.2,44.2
			c0,24.3,19.8,44,44.1,44.1C456.5,316.8,476.4,297,476.3,272.6z"/>
	</g>
	<g id="Circular_Border">
		<path class="st2" d="M483.8,272.6c0,28.4-23,51.5-51.5,51.6c-28.4,0.1-51.8-23.3-51.7-51.7c0.1-28.4,23.3-51.6,51.6-51.5
			C460.6,221.1,483.8,244.2,483.8,272.6z M475.2,272.6c0-23.7-19.3-42.9-42.9-43c-23.7-0.1-43.2,19.4-43.1,43.1
			c0,23.7,19.3,42.9,43,43C455.8,315.7,475.2,296.3,475.2,272.6z"/>
	</g>
	<g id="Right_Leaf">
		<path class="st6" d="M433,288.4l-0.4-0.3c-0.2-1.6,0.9-4.8,2.2-8.2c0.4-1.2,0.8-2.3,1.2-3.2l0,0l0,0c2.8-6.6,5.9-12.7,9.4-18.3
			c-1.4,1.2-2.8,2.5-3.5,3.1c-1,1.2-2,2.2-2.8,3.2c-4.6,5.2-6.5,7.3-10.6,16.5l0,0l-0.6-0.3c0.2-4.6,15.6-26.7,21.9-29.3
			C454.4,249.7,433,288.4,433,288.4z"/>
		<path class="st7" d="M421.6,276c0.1-4.4,2-8.5,3.6-10.9c2.1-3,6.4-7.1,10.8-9.9c3.9-2.4,6.8-4.4,13.8-7.6c2.2-1,5.9-2.6,6.5-2.9
			c0.9-0.5,1.5-0.3,1.7,0.7c1.3,11.3,1.9,22.7-2.8,33.5c-0.8,2-2,3.9-3.3,5.6c-4.2,5.5-9,7.6-15.8,6c-1.1-0.2-3.1-2.1-3.1-2.1
			c-0.3-1.9,2.3-7.9,3.5-11.6c3.1-7.3,6.6-14.1,10.8-20.6c0.4-0.6,0.8-1.1,1.3-1.8c-0.6,0.5-5.8,5.2-7.2,6.4
			c-6.7,7.7-8.6,8.8-13.5,19.9L421.6,276z"/>
	</g>
	<g id="Left_Leaf">
		<path class="st6" d="M404.6,278c3-2.8,27.7,16.5,27.4,16.5c-0.1,0-0.3,0.6-0.4,0.5c-0.9-0.6-1.8-1.3-2.7-1.9c-2-1.4-4-2.9-6.1-4.1
			c-3.5-2-6.9-3.7-10.5-5.6c-0.8-0.4-1.6-0.8-2.4-1.2c5.6,5.1,10.7,10.7,15.7,16.8l0,0l0,0c0.4,0.6,0.6,2-0.1,2.4
			C423.1,302.6,404.1,278.4,404.6,278z"/>
		<path class="st8" d="M427,282.4c2.6,3.5,4.8,7.4,4.9,12l0,0c-3-2-5.8-4.3-8.9-6c-5-2.8-10-5.3-15.3-8c-0.6-0.3-1.1-0.6-1.7-0.9
			c-0.1-0.1,0.8,0.8,1.2,1.2c6.5,5.7,12.4,11.9,17.8,18.7c1,1.4,0.8,2.1-0.8,2.8c-6.7,3.4-13.3,1.6-18.4-5.1
			c-5.1-6.8-7.8-14.6-10-22.7c-0.4-1.5,0.4-1.5,1.5-1.6c8.4-0.2,16.6,1.2,24.2,4.9l1.3,1l1.9,1.5l1.4,1.2L427,282.4z"/>
	</g>
</g>
<g id="Agr">
	<g id="o" class="st9">
		<path class="st10" d="M449.1,193.9c75.5-12.4,56.8-62.3,89.8-95.1c-60.6-1.9-102.8,20-110.5,69.2c-10.6-64.1-46-74.5-88.1-70.3
			c28.3,34,21.6,61.6,66.8,60.2c-9.5-19.1-23.6-35.3-42.1-48.4c59.4,14.8,66.3,72.4,56.1,144h15.7c-11.7-84.7,17-130.8,77.4-146.8
			C479.5,126.4,456.8,158.3,449.1,193.9"/>
		<path class="st11" d="M431,327c14.4,0,26.7-5,36.7-15c10.1-10,15.1-22,15.1-36.1c0-14.4-5-26.7-15.1-36.7
			c-10.1-10.1-22.3-15.1-36.7-15.1c-14.1,0-26.1,5-36.1,15.1s-15,22.3-15,36.7c0,14.1,5,26.1,15,36.1S416.9,327,431,327z"/>
	</g>
	<g id="r">
		<path class="st1" d="M352.7,281.8v42.4h-38.4v-48.9c0-11,1-19.7,3.1-25.9s5.5-11.7,10.5-16.5c3.7-3.7,8.1-6.6,13-8.7
			s10-3.1,15-3.1c2.4,0,4.9,0.1,7.2,0.3c2.4,0.2,4.7,0.5,6.9,0.9v40.4c-0.5-0.1-1.1-0.2-2-0.3c-2.1-0.3-3.5-0.5-4-0.5
			c-4.2,0-7.1,1.4-8.8,4C353.5,268.6,352.7,273.9,352.7,281.8z"/>
	</g>
	<g id="g">
		<path class="st1" d="M254.8,283.7v35.5c-2.6,0.8-5.1,1.4-7.5,1.7c-2.4,0.4-4.8,0.6-7.1,0.6c-13.2,0-24.1-4.5-32.7-13.4
			c-8.6-8.9-12.9-20.4-12.9-34.3c0-15.2,5-27.9,14.9-37.9c9.9-10.1,22.4-15.1,37.4-15.1c10.5,0,19.8,2.5,28.1,7.6s14.5,12.1,18.6,21
			c2.1,4.6,3.7,9.4,4.7,14.4c1,4.9,1.5,11.1,1.5,18.4v7.1v30c0,15.5-5.5,28.2-16.4,38.2s-24.9,15-41.9,15c-3.1,0-6-0.3-8.8-0.8
			s-5.6-1.4-8.3-2.5v-35.5c2.6,1.2,5,2.1,7.3,2.7s4.7,0.9,7.1,0.9c6.9,0,12.6-2,16.9-6.2c4.3-4.1,6.5-9.4,6.5-15.9v-32.9
			c0-8.7-1.2-14.7-3.5-18.1s-6.1-5.1-11.5-5.1c-4,0-7.5,1.3-10.3,3.9s-4.2,5.7-4.2,9.3c0,3.9,1.4,7.1,4.1,9.6s6.2,3.7,10.5,3.7
			c1.1,0,2.3-0.1,3.5-0.4C252.1,284.6,253.4,284.2,254.8,283.7z"/>
	</g>
	<g id="A">
		<path class="st1" d="M79.1,324.2v-74.9c0-7.8,0.2-13.7,0.6-17.7s1.1-7.7,2-11.3c3.2-12.5,9-22.2,17.5-29.1
			c8.4-6.9,18.7-10.4,30.7-10.4c8.3,0,15.9,1.9,23,5.7s12.9,9.1,17.4,16c3.6,5.6,6.2,11.8,7.8,18.6s2.4,16.2,2.4,28.2v74.9h-41.2
			v-85c0-5.5-0.7-9.4-2.1-11.8s-3.6-3.5-6.8-3.5c-3,0-5.2,1.1-6.4,3.2s-1.9,6.2-1.9,12.1V254H133v37.3h-10.9v32.9L79.1,324.2
			L79.1,324.2z"/>
	</g>
</g>
</svg>
