<?xml version="1.0" encoding="iso-8859-1"?>
<!-- Generator: Adobe Illustrator 19.0.0, SVG Export Plug-In . SVG Version: 6.00 Build 0)  -->
<svg version="1.1" id="Capa_1" xmlns="http://www.w3.org/2000/svg" xmlns:xlink="http://www.w3.org/1999/xlink" x="0px" y="0px"
	 viewBox="0 0 511.998 511.998" style="enable-background:new 0 0 511.998 511.998;" xml:space="preserve">
<path style="fill:#4C4846;" d="M379.829,252.906c-10.885-18.302-13.758-41.993-14.404-56.896l3.631-34.082
	c-0.04-43.633,0.103-40.615-0.162-45.857c-4.045-79.77-88.272-134.213-166.426-96.066c-26.123,12.821-52.563,41.475-60.105,79.501
	c-3.627,18.259-1.652,27.466-2.228,62.424l4.441,34.455c-0.677,14.923-3.593,38.373-14.387,56.523
	c-20.829,35.018,10.701,49.964,0.966,82.447l247.526-0.644C369.554,302.672,400.52,287.691,379.829,252.906z"/>
<g>
	<path style="fill:#3D3938;" d="M148.357,329.456c-0.013,0.005-0.028,0.01-0.042,0.015
		C148.329,329.466,148.343,329.461,148.357,329.456z"/>
	<path style="fill:#3D3938;" d="M148.124,329.538c0.085-0.03,0.19-0.067,0.318-0.113c-0.028,0.01-0.057,0.02-0.084,0.03
		c0.514-0.182,0.768-0.272,0.851-0.301c-0.006,0.002-0.012,0.004-0.019,0.007c0.015-0.005,0.032-0.011,0.047-0.017
		c0.005-0.002,0.006-0.002,0.001-0.001c1.351-0.479,3.845-1.362,8.218-2.912c2.268-26.498-21.504-41.756-2.727-73.326
		c6.052-10.174,9.625-22.014,11.719-33.083c-4.134-14.985-3.263-28.037-3.292-41.864c0.166-28.825-0.392-29.254,0.519-32.975
		c0.032-21.151-1.179-34.224,4.132-53.526c12.521-45.384,51.72-78.606,98.559-83.39C198.708,1.156,140.136,54.14,140.136,121.92
		v40.008l4.441,34.455c-0.677,14.923-3.593,38.373-14.387,56.523c-20.829,35.018,10.701,49.964,0.966,82.447
		c0.101-0.03,3.442-1.015,3.341-0.985c8.45-2.994,12.269-4.347,13.818-4.897C148.247,329.494,148.183,329.517,148.124,329.538z
		 M149.027,329.218c0.041-0.015,0.077-0.027,0.121-0.043C149.114,329.187,149.074,329.202,149.027,329.218z M148.571,329.38
		c0.032-0.012,0.068-0.024,0.103-0.037C148.64,329.355,148.606,329.367,148.571,329.38z M148.054,329.563
		c-0.034,0.012-0.066,0.023-0.094,0.033C147.987,329.587,148.019,329.575,148.054,329.563z"/>
	<path style="fill:#3D3938;" d="M149.207,329.154c0.015-0.005,0.024-0.009,0.029-0.01c0,0-0.001,0-0.001,0.001
		C149.23,329.146,149.221,329.149,149.207,329.154z"/>
</g>
<path style="fill:#EDEDED;" d="M432.718,478.033c-23.907-122.071-22.881-114.649-24.537-118.606
	c-4.818-11.448-14.426-20.687-30.658-25.061c0.81,0.285-28.881-10.153-62.172-21.855l-17.839-13.646l0.026-22.832l0,0
	c-26.739,14.281-58.354,13.764-83.085,1.425l0,0l0,0v21.407l-17.786,13.646l-19.326,6.673h-0.028l0.004,0.008
	c-3.546,1.256-38.244,13.551-42.822,15.174c-13.853,3.341-25.43,12.2-30.813,25.457c-2.239,5.478-1.255,2.059-18.061,86.46
	c-6.707,33.688-6.787,32.75-6.673,37.607c0.521,22.462,22.737,20.404,23.338,20.606c96.472,0,210.798,0,307.443,0
	C409.836,504.46,436.745,506.528,432.718,478.033z"/>
<path style="fill:#DADADA;" d="M104.448,478.033c4.675-25.61,21.75-119.236,21.935-120.124c2.357-11.412,8.428-20.654,18.281-27.146
	c-13.494,4.781-21.276,5.927-30.231,13.863c-6.604,5.851-11.261,13.692-13.272,23.625C77.432,487.425,78.827,478.667,78.95,483.89
	c0.521,22.462,22.737,20.404,23.338,20.606c2.442,0,22.127,0,25.146,0C109.79,504.495,102.167,494.177,104.448,478.033z"/>
<rect x="214.456" y="365.772" style="fill:#70BBEF;" width="83.056" height="138.733"/>
<g>
	<path style="fill:#EAB883;" d="M163.155,158.699c-15.056-5.366-31.401,4.613-31.401,19.17c0,14.554,16.342,24.536,31.401,19.17
		V158.699z"/>
	<path style="fill:#EAB883;" d="M346.038,158.699c15.056-5.366,31.401,4.613,31.401,19.17c0,14.554-16.342,24.536-31.401,19.17
		V158.699z"/>
</g>
<g>
	<path style="fill:#DDA97A;" d="M134.272,168.478c-9.566,16.783,9.156,35.59,28.883,28.561v-18.782
		C152.075,182.206,139.639,177.895,134.272,168.478z"/>
	<path style="fill:#DDA97A;" d="M346.038,178.257v18.782c19.74,7.034,38.438-11.798,28.882-28.561
		C369.555,177.891,357.122,182.208,346.038,178.257z"/>
</g>
<path style="fill:#EAB883;" d="M297.513,298.865l0.026-22.832c-26.48,14.143-58.092,13.894-83.085,1.425v21.407l0,0v70.489
	c24.235,6.458,58.773,6.474,83.058,0.009v-70.498"/>
<rect x="214.456" y="365.772" style="fill:#3AA8D8;" width="25.008" height="138.733"/>
<path style="fill:#DDA97A;" d="M239.462,285.466c-8.992-1.494-17.603-4.313-25.008-8.008c0,12.169,0,83.77,0,91.896
	c7.235,1.928,16.113,3.326,25.008,4.124V285.466z"/>
<g>
	<path style="fill:#DADADA;" d="M297.512,298.865v205.63l33.913-82.231c1.75-3.302,1.214-7.35-1.333-10.083l-12.852-13.79
		c-3.029-3.25-2.752-8.368,0.612-11.271l17.039-14.708c3.439-2.969,4.496-7.855,2.592-11.981l-22.131-47.923L297.512,298.865z"/>
	<path style="fill:#DADADA;" d="M214.454,298.865v205.63l-33.699-81.929c-1.845-3.482-1.28-7.751,1.406-10.634l13.146-14.105
		c2.742-2.942,2.491-7.574-0.554-10.202l-17.979-15.518c-3.229-2.787-4.222-7.376-2.434-11.25l22.328-48.348L214.454,298.865z"/>
</g>
<path style="fill:#F7CF9C;" d="M163.155,149.316c0-12.285,11.964-20.792,23.682-17.107c9.78,3.075,22.139,2.994,36.208-5.767
	c33.922-21.122,40.202-32.538,80.152-27.476c3.068,0.389,5.686,2.398,6.897,5.243c3.275,7.697,11.497,23.168,26.244,28.132
	c5.766,1.941,9.7,7.274,9.7,13.358c0,53.006,0.577,55.654-1.78,67.506c-4.277,21.486-16.113,40.893-34.053,54.676
	c-60.124,46.031-147.052,3.044-147.052-72.583l0,0C163.155,192.384,163.155,149.215,163.155,149.316z"/>
<path style="fill:#EAB883;" d="M188.926,207.173c-1.059-7.876-0.764-9.417-0.764-74.581c-0.445-0.124-0.89-0.246-1.325-0.383
	c-11.72-3.685-23.682,4.823-23.682,17.107c0,44.628-2.717,62.244,9.764,87.113c17.144,33.988,54.284,54.9,94.182,49.445
	C226.532,280.333,194.232,248.091,188.926,207.173z"/>
<circle style="fill:#FCD249;" cx="255.999" cy="429.342" r="13.248"/>
<g>
	<path style="fill:#F9B938;" d="M256.003,416.104c-10.101-0.015-16.608,10.978-11.48,19.862c5.131,8.887,17.904,8.742,22.94-0.01
		C257.273,435.941,250.911,424.952,256.003,416.104z"/>
	<path style="fill:#F9B938;" d="M269.801,482.439h-27.609c-2.444,0-4.424-1.981-4.424-4.424v-31c0-2.444,1.981-4.424,4.424-4.424
		h27.609c2.444,0,4.424,1.981,4.424,4.424v31C274.225,480.458,272.245,482.439,269.801,482.439z"/>
</g>
<path style="fill:#EDA018;" d="M255.997,478.014v-31c0-2.444,1.981-4.424,4.424-4.424h-18.229c-2.444,0-4.425,1.981-4.425,4.424v31
	c0,2.444,1.981,4.424,4.425,4.424h18.229C257.977,482.439,255.997,480.458,255.997,478.014z"/>
<path d="M102.292,511.998c17.755,0,289.718,0,307.443,0c20.413,0,31.271-11.854,30.837-29.927
	c-0.172-6.891-0.782-5.512-10.788-57.211c-0.808-4.064-4.762-6.702-8.823-5.893c-4.064,0.809-6.701,4.759-5.893,8.823
	c10.007,51.198,10.996,52.163,10.381,57.831c-0.569,5.295-2.87,11.373-15.715,11.373h-37.757v-82.026
	c0-4.144-3.358-7.502-7.502-7.502c-4.144,0-7.502,3.358-7.502,7.502v82.026h-48.248l29.523-71.585
	c3.011-6.053,1.963-13.373-2.666-18.341l-12.851-13.789c-0.029-0.03-0.097-0.104-0.089-0.245c0.008-0.14,0.079-0.202,0.113-0.231
	l17.041-14.708c5.939-5.128,7.789-13.682,4.499-20.805l-14.737-31.909c48.311,17.064,46.617,16.41,46.517,16.381
	c4.318,1.32,2.844,0.75,5.938,1.888c0.975,0.409,1.465,0.651,1.435,0.637c4.267,1.992,6.835,4.097,7.492,4.564l-0.002,0.002
	c14.737,12.281,11.769,23.355,17.287,44.592c0.81,4.064,4.759,6.7,8.823,5.893c4.064-0.809,6.702-4.759,5.893-8.823
	c-4.963-24.901-5.026-25.855-6.332-29.877c-5.095-15.729-16.839-26.629-31.605-31.884c-1.76-9.946,1.018-17.98,4.19-27.114
	c4.899-14.106,10.45-30.092-2.916-52.567c-9.253-15.555-12.199-35.947-13.109-49.008c7.156-5.153,11.772-13.181,11.772-22.193
	c0-7.492-3.194-14.305-8.382-19.352c-0.726-38.879,8.013-94.954-52.926-137.131l-0.396-0.273
	c-41.983-28.678-98.557-28.275-140.136,2.019c-3.355,2.432-4.105,7.121-1.674,10.477c2.432,3.356,7.123,4.105,10.477,1.674
	l0.403-0.293C239.534,0.464,314.773,8.48,350.412,74.336l0.084,0.155c13.167,26.699,11.032,46.948,11.061,76.018
	c-2.797-0.617-5.411-0.828-8.014-0.753V145.7c0-9.261-5.951-17.486-14.81-20.469c-12.158-4.092-19.249-18.118-21.735-23.959
	c-2.253-5.293-7.179-9.027-12.857-9.747c-43.082-5.461-51.382,7.582-85.06,28.549c-10.203,6.355-20.293,8.029-29.992,4.98
	c-16.629-5.231-33.436,6.959-33.436,24.264v0.44c-2.601-0.075-5.215,0.136-8.014,0.753c0.029-29.937-3.682-58.488,20.58-91.654
	c2.447-3.344,1.72-8.039-1.624-10.484c-3.345-2.447-8.038-1.721-10.484,1.625c-29.768,40.705-22.622,78.752-23.476,108.521
	c-12.652,12.309-10.757,32.039,4.176,42.095c-0.947,12.978-3.926,33.087-13.069,48.458c-13.367,22.475-7.813,38.461-2.912,52.566
	c3.254,9.363,6.093,17.59,4.039,27.902c-6.832,2.772-12.655,6.662-17.371,11.329l0.049-0.048
	c-5.008,4.577-10.33,12.869-12.784,21.993l0,0l-0.03,0.108c0.057-1.585-22.842,113.963-22.857,114.063
	C68.968,497.521,79.856,511.998,102.292,511.998z M390.867,348.78L390.867,348.78L390.867,348.78
	c0.024,0.022,0.05,0.045,0.076,0.068l-0.098-0.078L390.867,348.78z M221.959,496.993v-51.795c0-4.144-3.358-7.502-7.502-7.502
	s-7.502,3.358-7.502,7.502v21.336l-19.258-46.821c-0.093-0.225-0.195-0.444-0.31-0.659c-0.348-0.656-0.241-1.462,0.266-2.007
	l13.146-14.105c5.634-6.043,5.12-15.592-1.141-20.997l-17.979-15.518c-2.246-1.939,0.067-2.291,21.028-49.091l4.247-3.259
	c0,13.829,0,82.419,0,96.109c0,4.144,3.358,7.502,7.502,7.502s7.502-3.358,7.502-7.502v-31.495
	c4.267,0.785,8.834,1.437,13.512,1.936l10.776,30.41c-9.014,4.822-13.363,15.561-9.696,25.474
	c-3.738,2.017-6.284,5.968-6.284,10.504v31c0,6.576,5.351,11.927,11.928,11.927h27.609c6.577,0,11.928-5.351,11.928-11.927v-31
	c0-4.536-2.547-8.488-6.284-10.504c3.666-9.909-0.677-20.65-9.696-25.474l10.775-30.408c4.668-0.497,9.227-1.147,13.486-1.931
	v118.295H221.959z M290.025,287.695l-0.011,9.951l-24.387,68.816c-6.691,0.381-12.538,0.382-19.258-0.001l-24.411-68.885v-8.859
	C244.731,296.65,269.036,295.79,290.025,287.695z M290.012,363.414c-2.483,0.51-5.129,0.97-7.873,1.376l7.873-22.22V363.414z
	 M266.726,450.092v24.845h-21.454v-24.845H266.726z M250.253,429.342c0-3.093,2.483-5.732,5.767-5.744
	c3.158,0.012,5.725,2.583,5.725,5.744c0,3.168-2.578,5.746-5.746,5.746C252.831,435.088,250.253,432.51,250.253,429.342z
	 M260.229,381.697l-4.23,11.937l-4.23-11.937C254.94,381.772,257.081,381.772,260.229,381.697z M221.959,342.497l7.899,22.292
	c-2.755-0.407-5.41-0.87-7.899-1.382V342.497z M329.992,366.735l-17.04,14.707c-3.185,2.749-5.065,6.576-5.293,10.776
	c-0.228,4.201,1.226,8.21,4.095,11.289l12.851,13.788c0.368,0.396,0.445,0.982,0.193,1.46c-0.112,0.211-0.214,0.428-0.306,0.649
	l-19.475,47.222c0-39.758,0-129.987,0-152.578c0.112,0.086,4.579,3.503,4.303,3.292l21.355,46.238
	C331.172,364.66,330.892,365.957,329.992,366.735z M358.574,205.747c1.475,15.786,5.355,35.096,14.811,50.994
	c16.144,27.142-4.441,39.468-3.926,66.819c-3.071-1.079,14.409,5.063-50.516-17.749l-13.921-10.649
	c0.001-1.102,0.015-13.015,0.017-14.746c1.222-0.894,10-5.261,21.74-17.447v-0.001c13.76-14.289,23.873-34.991,26.19-57
	C354.817,206.055,356.894,205.957,358.574,205.747z M353.543,190.966v-26.2C374.97,163.631,375.46,192.125,353.543,190.966z
	 M184.588,139.365c13.864,4.36,28.535,2.094,42.424-6.554c34.064-21.209,38.39-31.073,75.244-26.402
	c0.406,0.052,0.766,0.334,0.937,0.736c4.07,9.569,13.479,26.491,30.754,32.306c2.746,0.924,4.591,3.436,4.591,6.248v12.999
	c-0.607,29.176,1.708,42.223-2.816,58.175c-9.702,35.714-39.864,58.809-73.036,61.976c-4.219,0.403-8.429,0.376-8.345,0.376
	c-10.064-0.048-18.074-1.994-17.973-1.973c-0.445-0.107-2.255-0.551-2.184-0.533c-21.801-5.159-41.604-19.485-54.845-44.199
	c-10.799-21.802-8.681-34.44-8.682-83.207C170.659,142.17,177.626,137.176,184.588,139.365z M155.654,164.765v26.199
	c-8.524,0.455-16.395-5.27-16.395-13.096C139.259,170.063,147.084,164.313,155.654,164.765z M136.64,256.741
	c9.445-15.882,13.32-35.175,14.801-50.898c1.329,0.131,3.203,0.194,4.787,0.124c3.257,31.154,21.665,60.026,50.726,76.066v13.132
	c-2.392,1.835-6.173,4.736-13.883,10.653c-18.943,6.54-51.935,18.228-52.514,18.443C141.478,296.313,120.301,284.21,136.64,256.741z
	 M86.707,479.279c4.794-24.065,21.418-107.6,21.88-109.848c4.109-19.866,20.739-25.212,21.746-25.92
	c1.759-0.722,3.964-1.16,7.067-2.213l42.393-15.021l0.001-0.001l2.685-0.927l-14.947,32.365c-3.175,6.871-1.389,15.126,4.342,20.073
	l17.655,15.238l-12.854,13.791c-4.77,5.116-5.847,12.657-2.739,18.891l29.321,71.286h-48.206v-82.026
	c0-4.144-3.358-7.502-7.502-7.502c-4.144,0-7.502,3.358-7.502,7.502v82.026h-37.756C90.75,496.993,84.973,492.169,86.707,479.279z"
	/>
<g>
</g>
<g>
</g>
<g>
</g>
<g>
</g>
<g>
</g>
<g>
</g>
<g>
</g>
<g>
</g>
<g>
</g>
<g>
</g>
<g>
</g>
<g>
</g>
<g>
</g>
<g>
</g>
<g>
</g>
</svg>
